#!OML:ASF \\sashay\E\basketball\basketball\Project 1\Capture day 1\Session 1\Subject.ASF
:FULLY-SPECIFIED
:DEGREES
181
root 25.053 14.8161 -14.1622 -26.4971 108.417 -43.4558
lowerback 18.445 -2.25336 -10.6631
upperback 8.62663 -3.86632 -4.82495
thorax -0.51369 -1.72558 1.54542
lowerneck -6.13052 -8.45014 -17.2609
upperneck -18.1293 -6.85429 30.0762
head -1.91108 -3.18611 12.9029
rclavicle 4.65156e-014 7.15625e-015
rhumerus -32.1811 -4.47639 -93.5004
rradius 56.7804
rwrist -10.3359
rhand -39.2195 44.1216
rfingers 7.12502
rthumb -12.2153 14.4983
lclavicle 4.65156e-014 7.15625e-015
lhumerus -4.90516 8.31698 81.5692
lradius 47.6227
lwrist 4.166
lhand -30.4498 35.8009
lfingers 7.12502
lthumb -3.75181 65.7477
rfemur -65.8601 0.576961 15.761
rtibia 65.9816
rfoot -6.38677 -7.30378
rtoes -30.8783
lfemur 12.3778 2.49688 -12.6597
ltibia 22.9294
lfoot 3.47876 -2.31477
ltoes -46.2031
182
root 25.6785 14.8824 -14.2927 -27.6001 107.604 -44.3071
lowerback 17.9734 -2.26834 -9.74034
upperback 8.74752 -3.69338 -4.62833
thorax -0.228652 -1.64943 1.19924
lowerneck -6.09039 -8.10315 -17.1871
upperneck -17.9189 -6.51827 29.1295
head -2.02826 -3.00294 12.5423
rclavicle -3.97569e-015 -4.85035e-014
rhumerus -33.6651 -4.07856 -92.65
rradius 58.1486
rwrist -11.5192
rhand -39.1043 43.3845
rfingers 7.12502
rthumb -12.1042 13.7546
lclavicle -3.97569e-015 -4.85035e-014
lhumerus -7.96277 7.16373 80.8954
lradius 50.1658
lwrist 5.03294
lhand -28.9405 34.5469
lfingers 7.12502
lthumb -2.29421 64.5143
rfemur -65.1107 0.0688104 17.1641
rtibia 58.7231
rfoot -3.19591 -4.99071
rtoes -36.1609
lfemur 16.0357 1.18539 -12.7962
ltibia 21.2749
lfoot 4.48857 2.77796
ltoes -45.3745
183
root 26.2978 14.9297 -14.4033 -28.472 107.01 -45.1279
lowerback 17.3058 -2.26447 -9.00938
upperback 8.79904 -3.52485 -4.40611
thorax 0.107148 -1.58139 0.979044
lowerneck -6.00929 -7.90563 -17.3096
upperneck -17.5896 -6.41196 28.4227
head -2.03018 -2.93551 12.2893
rclavicle 3.97569e-014 -4.17448e-014
rhumerus -35.169 -3.81516 -91.8919
rradius 60.1025
rwrist -12.7877
rhand -38.6049 42.9434
rfingers 7.12502
rthumb -11.6227 13.2857
lclavicle 3.97569e-014 -4.17448e-014
lhumerus -11.0532 6.16874 80.4636
lradius 52.8017
lwrist 6.29648
lhand -26.9247 33.4854
lfingers 7.12502
lthumb -0.347374 63.4649
rfemur -64.1005 -0.612881 18.4846
rtibia 51.8934
rfoot -0.770388 -2.46651
rtoes -35.0341
lfemur 19.1502 0.271585 -12.8334
ltibia 20.117
lfoot 5.15713 5.6387
ltoes -43.5967
184
root 26.9163 14.9426 -14.5007 -30.9247 106.948 -47.5441
lowerback 16.6125 -2.22091 -9.19543
upperback 8.87333 -3.41753 -4.26609
thorax 0.564805 -1.56399 1.1814
lowerneck -5.85824 -7.70297 -17.6678
upperneck -17.3367 -6.22691 28.2107
head -2.03274 -2.83339 12.2885
rclavicle 1.15295e-014 -4.77083e-015
rhumerus -36.4654 -3.51639 -91.2511
rradius 62.2308
rwrist -13.7333
rhand -37.876 42.9655
rfingers 7.12502
rthumb -10.9197 13.2695
lclavicle 1.15295e-014 -4.77083e-015
lhumerus -14.0751 5.47508 80.257
lradius 55.4358
lwrist 8.22272
lhand -25.2224 32.3354
lfingers 7.12502
lthumb 1.29678 62.3112
rfemur -63.1858 -1.66223 19.4776
rtibia 45.5006
rfoot 1.59985 0.104427
rtoes -40.6757
lfemur 21.8689 -0.245106 -13.3232
ltibia 19.7476
lfoot 5.82046 6.85454
ltoes -42.262
185
root 27.5448 14.9621 -14.5839 -34.6177 107.614 -50.9885
lowerback 16.0379 -2.22466 -10.1535
upperback 9.05155 -3.44305 -4.23315
thorax 1.15048 -1.63147 1.71082
lowerneck -5.09033 -7.38683 -18.1008
upperneck -17.4863 -5.89145 28.0702
head -2.28507 -2.70404 12.3878
rclavicle 1.90833e-014 -7.7526e-015
rhumerus -37.4761 -3.02927 -90.7714
rradius 64.2559
rwrist -13.8274
rhand -37.515 43.4149
rfingers 7.12502
rthumb -10.5714 13.7007
lclavicle 1.90833e-014 -7.7526e-015
lhumerus -17.2413 5.09572 80.1937
lradius 58.502
lwrist 10.2457
lhand -23.9294 31.1354
lfingers 7.12502
lthumb 2.54555 61.1
rfemur -61.9781 -3.08715 19.6854
rtibia 40.0048
rfoot 3.14506 1.9631
rtoes -39.2323
lfemur 24.1111 -0.608573 -14.2755
ltibia 20.5403
lfoot 6.30054 6.37254
ltoes -41.0297
186
root 28.1698 14.987 -14.6474 -38.4256 108.628 -54.3489
lowerback 15.7763 -2.19569 -11.4222
upperback 9.18566 -3.48713 -4.28856
thorax 1.55716 -1.70774 2.32883
lowerneck -4.19158 -7.16024 -18.4753
upperneck -17.4193 -5.7767 27.8978
head -2.45333 -2.69915 12.437
rclavicle 5.57591e-014 4.03533e-014
rhumerus -38.5139 -2.42813 -90.5762
rradius 66.4434
rwrist -12.9636
rhand -37.656 43.8276
rfingers 7.12502
rthumb -10.7075 14.1205
lclavicle 5.57591e-014 4.03533e-014
lhumerus -20.7175 4.90581 80.0713
lradius 62.0909
lwrist 12.2415
lhand -22.1353 29.9682
lfingers 7.12502
lthumb 4.27816 59.9049
rfemur -60.6176 -4.58304 19.6788
rtibia 35.5408
rfoot 4.5368 2.42137
rtoes -33.2123
lfemur 25.7332 -1.01681 -15.353
ltibia 22.5815
lfoot 6.6815 5.11542
ltoes -39.761
187
root 28.7748 14.9824 -14.701 -41.3375 109.607 -56.6246
lowerback 15.8798 -2.12029 -12.4887
upperback 9.28994 -3.49478 -4.32016
thorax 1.72367 -1.74901 2.8723
lowerneck -3.72135 -7.06089 -18.7905
upperneck -17.1873 -5.79731 27.7784
head -2.46466 -2.73074 12.4578
rclavicle 3.63279e-014 4.06515e-014
rhumerus -39.5008 -1.78495 -90.659
rradius 68.7734
rwrist -11.5317
rhand -37.9358 44.2654
rfingers 7.12502
rthumb -10.9774 14.5724
lclavicle 3.63279e-014 4.06515e-014
lhumerus -24.1751 4.87946 79.9295
lradius 65.8494
lwrist 14.643
lhand -19.9348 28.9657
lfingers 7.12502
lthumb 6.4028 58.8489
rfemur -59.3462 -6.09646 20.0872
rtibia 32.2104
rfoot 5.46757 1.66035
rtoes -28.494
lfemur 26.7138 -1.53727 -16.142
ltibia 25.9656
lfoot 6.53439 3.50386
ltoes -39.4083
188
root 29.3816 14.9562 -14.7525 -43.6197 110.412 -58.4716
lowerback 15.6416 -2.05007 -13.3647
upperback 9.3182 -3.45623 -4.35948
thorax 1.96275 -1.77112 3.28466
lowerneck -3.27692 -6.88687 -18.3035
upperneck -16.7749 -5.83513 26.7556
head -2.51495 -2.7835 11.9623
rclavicle 4.65156e-014 -1.47846e-015
rhumerus -40.3719 -0.944732 -91.1126
rradius 71.0078
rwrist -10.0864
rhand -38.278 44.642
rfingers 7.12502
rthumb -11.3074 14.9668
lclavicle 4.65156e-014 -1.47846e-015
lhumerus -27.6565 5.04609 79.6608
lradius 69.6834
lwrist 17.3137
lhand -17.733 28.2826
lfingers 7.12502
lthumb 8.52804 58.0904
rfemur -58.3581 -7.97022 21.2189
rtibia 30.2169
rfoot 5.39995 0.548708
rtoes -25.191
lfemur 26.8367 -1.88669 -16.7218
ltibia 30.6591
lfoot 6.44829 2.3384
ltoes -39.0794
189
root 29.9883 14.8927 -14.8088 -45.44 111.208 -59.7732
lowerback 15.4004 -1.99222 -14.0582
upperback 9.33033 -3.40956 -4.44698
thorax 2.1637 -1.77938 3.54611
lowerneck -2.80311 -7.02333 -18.6055
upperneck -16.3929 -6.19676 26.9221
head -2.3823 -2.99742 12.057
rclavicle -2.40778e-014 4.39811e-014
rhumerus -41.1765 0.110829 -91.9488
rradius 73.2546
rwrist -9.14595
rhand -38.5569 45.0253
rfingers 7.12502
rthumb -11.5764 15.365
lclavicle -2.40778e-014 4.39811e-014
lhumerus -31.1204 5.13646 79.2508
lradius 73.4102
lwrist 19.8144
lhand -15.9831 27.3532
lfingers 7.12502
lthumb 10.2165 57.0851
rfemur -57.8253 -9.70265 22.1254
rtibia 29.9909
rfoot 6.80893 -1.90088
rtoes -15.1384
lfemur 26.5161 -2.20083 -17.1021
ltibia 36.3671
lfoot 5.80437 1.04103
ltoes -39.9926
190
root 30.5831 14.8236 -14.8607 -46.8803 111.923 -60.8276
lowerback 15.1186 -1.83839 -14.5461
upperback 9.33003 -3.21016 -4.49906
thorax 2.32768 -1.70588 3.71788
lowerneck -2.32098 -7.0243 -18.5732
upperneck -16.2014 -6.36029 26.6374
head -2.39848 -3.11069 11.9413
rclavicle -6.26172e-015 -1.41137e-014
rhumerus -41.7453 1.22409 -92.9248
rradius 75.6192
rwrist -8.91625
rhand -38.6013 46.21
rfingers 7.12502
rthumb -11.6192 16.5522
lclavicle -6.26172e-015 -1.41137e-014
lhumerus -34.2224 4.95918 79.0087
lradius 76.9831
lwrist 21.9749
lhand -14.6128 27.0676
lfingers 7.12502
lthumb 11.5382 56.73
rfemur -57.7751 -10.9995 22.6918
rtibia 31.4031
rfoot 7.55766 -4.42152
rtoes -2.73253
lfemur 25.584 -2.21026 -17.1428
ltibia 42.6403
lfoot 5.0207 1.75361
ltoes -39.9905
